<svg xmlns="http://www.w3.org/2000/svg" version="1.1" xmlns:xlink="http://www.w3.org/1999/xlink" width="512" height="512" x="0" y="0" viewBox="0 0 93.884 93.883" style="enable-background:new 0 0 512 512" xml:space="preserve" class=""><g><path d="M92.295 84.629 56.69 49.105c8.553-12.164 7.424-29.111-3.443-39.98C41.085-3.04 21.289-3.04 9.124 9.125c-12.165 12.164-12.165 31.958 0 44.123 10.868 10.871 27.814 11.996 39.979 3.44l35.523 35.607a5.424 5.424 0 0 0 7.667 0 5.415 5.415 0 0 0 .002-7.666zM30.971 52.697c-12.018 0-21.762-9.741-21.762-21.758 0-12.02 9.744-21.762 21.762-21.762 12.014 0 21.758 9.742 21.758 21.762 0 12.017-9.744 21.758-21.758 21.758z" fill="#bbb5ae" opacity="1" data-original="#000000" class=""></path></g></svg>